<svg width="150" height="50" viewBox="0 0 150 50" fill="none" xmlns="http://www.w3.org/2000/svg">
<path d="M32.4778 28.4078C32.4778 29.6837 32.5368 30.7588 32.655 31.633C32.7967 32.4836 32.9031 33.1688 32.974 33.6887C33.0685 34.2085 33.0921 34.5865 33.0448 34.8228C32.9976 35.0354 32.7849 35.1418 32.4069 35.1418C31.8162 35.1418 31.2964 35.0118 30.8474 34.7519C30.4221 34.4684 30.0441 34.1021 29.7133 33.6532C29.4061 33.1807 29.1344 32.6608 28.8981 32.0938C28.6855 31.5267 28.5083 30.936 28.3665 30.3217C28.0357 28.904 27.8585 27.2973 27.8349 25.5016C27.2914 27.2028 26.7716 28.7032 26.2754 30.0027C26.0628 30.5698 25.8383 31.125 25.602 31.6685C25.3894 32.2119 25.1649 32.6963 24.9287 33.1216C24.716 33.5233 24.5152 33.854 24.3261 34.114C24.1371 34.3739 23.9717 34.5038 23.83 34.5038C23.5464 34.5038 23.1684 34.4684 22.6958 34.3975C22.2469 34.303 21.798 34.1258 21.349 33.8659C20.9237 33.5823 20.5457 33.2043 20.2149 32.7317C19.9077 32.2355 19.7541 31.5976 19.7541 30.8179C19.7541 30.298 19.8014 29.5892 19.8959 28.6913C19.9904 27.7935 20.0849 26.8366 20.1794 25.8206C20.2976 24.8046 20.4157 23.7767 20.5339 22.7371C20.652 21.6739 20.7347 20.7169 20.782 19.8663C20.8528 19.0157 20.8647 18.3305 20.8174 17.8107C20.7701 17.2673 20.652 16.9955 20.463 16.9955C20.1086 16.9955 19.7778 17.3263 19.4706 17.9879C19.1634 18.6259 18.8681 19.4647 18.5846 20.5043C18.301 21.5439 18.0293 22.7135 17.7694 24.013C17.5095 25.2889 17.2614 26.5648 17.0251 27.8407C16.7888 29.093 16.5644 30.2862 16.3517 31.4204C16.1391 32.5309 15.9382 33.4287 15.7492 34.114C15.8673 34.5865 15.9028 34.9173 15.8555 35.1063C15.8319 35.2953 15.5956 35.3899 15.1467 35.3899C14.3433 35.3899 13.67 35.1418 13.1265 34.6456C12.6067 34.1494 12.1932 33.5114 11.886 32.7317C11.5789 31.9284 11.3544 31.0305 11.2127 30.0381C11.0945 29.0221 11.0118 28.018 10.9646 27.0256C10.9173 26.0332 10.9055 25.0881 10.9291 24.1902C10.9527 23.2687 10.9646 22.5008 10.9646 21.8865C10.9646 21.6266 10.8937 21.4494 10.7519 21.3549C10.6101 21.2604 10.5393 21.0832 10.5393 20.8233C10.5393 20.5633 10.7992 20.4098 11.319 20.3625C11.8388 20.2916 12.4059 20.3271 13.0202 20.4688C13.6581 20.587 14.237 20.8114 14.7568 21.1422C15.2767 21.473 15.5366 21.8983 15.5366 22.4181C15.5366 23.4578 15.4657 24.5683 15.3239 25.7497C15.2058 26.9311 15.1467 28.1597 15.1467 29.4356C15.1467 29.6955 15.1467 29.9436 15.1467 30.1799C15.1467 30.4162 15.1585 30.6288 15.1821 30.8179C15.3003 30.0854 15.4539 29.1875 15.6429 28.1243C15.8555 27.061 16.0918 25.9505 16.3517 24.7927C16.6353 23.6113 16.9424 22.4418 17.2732 21.284C17.6276 20.1262 18.0057 19.0866 18.4073 18.1651C18.809 17.2436 19.2343 16.4993 19.6833 15.9323C20.1558 15.3652 20.652 15.0817 21.1718 15.0817C22.1878 15.0817 22.9675 15.4361 23.511 16.1449C24.0544 16.8538 24.4325 17.7398 24.6451 18.8031C24.8578 19.8663 24.9523 21.0123 24.9287 22.2409C24.9287 23.4696 24.8814 24.6155 24.7869 25.6788C24.6924 26.742 24.5979 27.6281 24.5033 28.3369C24.4088 29.0458 24.397 29.4002 24.4679 29.4002C24.5388 29.4002 24.6569 29.1875 24.8223 28.7622C24.9877 28.3369 25.1886 27.8053 25.4248 27.1673C25.6611 26.5294 25.9328 25.8324 26.24 25.0763C26.5472 24.3202 26.8543 23.6232 27.1615 22.9852C27.4923 22.3473 27.8113 21.8156 28.1184 21.3903C28.4492 20.965 28.7682 20.7524 29.0754 20.7524C29.5243 20.7524 29.9732 20.7878 30.4221 20.8587C30.8947 20.9296 31.3082 21.0595 31.6626 21.2486C32.0407 21.414 32.3478 21.6502 32.5841 21.9574C32.8204 22.2646 32.9385 22.6544 32.9385 23.127C32.9385 23.7177 32.8558 24.4501 32.6904 25.3244C32.5487 26.1986 32.4778 27.2264 32.4778 28.4078ZM50.289 24.2611C50.3598 24.0957 50.4425 23.9894 50.5371 23.9421C50.6316 23.8713 50.7261 23.8594 50.8206 23.9067C50.9151 23.9303 50.986 24.0012 51.0332 24.1193C51.0805 24.2375 51.0687 24.3911 50.9978 24.5801C50.9505 24.6982 50.856 25.0172 50.7143 25.537C50.5725 26.0332 50.3598 26.6357 50.0763 27.3446C49.8164 28.0298 49.4738 28.7622 49.0485 29.542C48.6468 30.3217 48.1625 31.0423 47.5954 31.7039C47.0283 32.3655 46.3667 32.9089 45.6106 33.3342C44.8782 33.7595 44.0512 33.9722 43.1297 33.9722C41.9011 33.9722 40.7905 33.7241 39.7982 33.2279C38.8294 32.7317 38.0025 32.0938 37.3172 31.314C36.6557 30.5343 36.1477 29.6837 35.7932 28.7622C35.4388 27.8171 35.2616 26.8956 35.2616 25.9978C35.2616 24.84 35.3916 23.7295 35.6515 22.6662C35.9114 21.5793 36.2304 20.587 36.6084 19.6891C36.9865 18.7913 37.3881 18.0115 37.8134 17.35C38.2624 16.6884 38.664 16.1922 39.0185 15.8614C39.3729 15.5542 39.8336 15.3298 40.4007 15.188C40.9678 15.0226 41.5348 14.9399 42.1019 14.9399C42.6926 14.9163 43.2478 14.9399 43.7677 15.0108C44.2875 15.0817 44.6891 15.188 44.9727 15.3298C45.5161 15.5897 45.9532 16.0977 46.284 16.8538C46.6385 17.5862 46.8157 18.4487 46.8157 19.441C46.8157 21.3076 46.4258 22.7253 45.6461 23.694C44.8664 24.6392 43.8976 25.1117 42.7398 25.1117C42.3145 25.1117 41.8656 25.0645 41.3931 24.97C40.9441 24.8754 40.5306 24.7691 40.1526 24.651C40.0817 25.5252 40.1526 26.3876 40.3652 27.2382C40.5779 28.0888 40.8614 28.8449 41.2158 29.5065C41.5939 30.1681 42.0192 30.7115 42.4918 31.1368C42.9879 31.5385 43.4841 31.7393 43.9803 31.7393C44.7364 31.7393 45.4098 31.574 46.0005 31.2432C46.5912 30.8887 47.111 30.4516 47.5599 29.9318C48.0325 29.412 48.4224 28.8449 48.7295 28.2306C49.0603 27.6163 49.332 27.0374 49.5447 26.494C49.781 25.9269 49.9464 25.4425 50.0409 25.0408C50.159 24.6155 50.2417 24.3556 50.289 24.2611ZM43.6259 17.9879C43.1533 17.9879 42.728 18.1533 42.35 18.4841C41.9719 18.8149 41.6411 19.252 41.3576 19.7954C41.0741 20.3389 40.8378 20.965 40.6488 21.6739C40.4598 22.3827 40.318 23.127 40.2235 23.9067C40.9796 24.2375 41.6293 24.3202 42.1728 24.1548C42.7162 23.9658 43.1651 23.6586 43.5196 23.2333C43.874 22.7844 44.1339 22.2646 44.2993 21.6739C44.4647 21.0595 44.5474 20.4807 44.5474 19.9372C44.5474 19.3938 44.4647 18.933 44.2993 18.555C44.1575 18.1769 43.9331 17.9879 43.6259 17.9879ZM70.204 28.4078C70.204 29.6837 70.263 30.7588 70.3812 31.633C70.5229 32.4836 70.6293 33.1688 70.7001 33.6887C70.7947 34.2085 70.8183 34.5865 70.771 34.8228C70.7238 35.0354 70.5111 35.1418 70.1331 35.1418C69.5424 35.1418 69.0226 35.0118 68.5736 34.7519C68.1483 34.4684 67.7703 34.1021 67.4395 33.6532C67.1323 33.1807 66.8606 32.6608 66.6243 32.0938C66.4117 31.5267 66.2345 30.936 66.0927 30.3217C65.7619 28.904 65.5847 27.2973 65.5611 25.5016C65.0176 27.2028 64.4978 28.7032 64.0016 30.0027C63.789 30.5698 63.5645 31.125 63.3282 31.6685C63.1156 32.2119 62.8911 32.6963 62.6548 33.1216C62.4422 33.5233 62.2414 33.854 62.0523 34.114C61.8633 34.3739 61.6979 34.5038 61.5562 34.5038C61.2726 34.5038 60.8946 34.4684 60.422 34.3975C59.9731 34.303 59.5242 34.1258 59.0752 33.8659C58.6499 33.5823 58.2719 33.2043 57.9411 32.7317C57.6339 32.2355 57.4803 31.5976 57.4803 30.8179C57.4803 30.298 57.5276 29.5892 57.6221 28.6913C57.7166 27.7935 57.8111 26.8366 57.9056 25.8206C58.0238 24.8046 58.1419 23.7767 58.2601 22.7371C58.3782 21.6739 58.4609 20.7169 58.5082 19.8663C58.579 19.0157 58.5908 18.3305 58.5436 17.8107C58.4963 17.2673 58.3782 16.9955 58.1892 16.9955C57.8348 16.9955 57.504 17.3263 57.1968 17.9879C56.8896 18.6259 56.5943 19.4647 56.3108 20.5043C56.0272 21.5439 55.7555 22.7135 55.4956 24.013C55.2357 25.2889 54.9876 26.5648 54.7513 27.8407C54.515 29.093 54.2906 30.2862 54.0779 31.4204C53.8653 32.5309 53.6644 33.4287 53.4754 34.114C53.5935 34.5865 53.629 34.9173 53.5817 35.1063C53.5581 35.2953 53.3218 35.3899 52.8729 35.3899C52.0695 35.3899 51.3961 35.1418 50.8527 34.6456C50.3329 34.1494 49.9194 33.5114 49.6122 32.7317C49.3051 31.9284 49.0806 31.0305 48.9388 30.0381C48.8207 29.0221 48.738 28.018 48.6908 27.0256C48.6435 26.0332 48.6317 25.0881 48.6553 24.1902C48.6789 23.2687 48.6908 22.5008 48.6908 21.8865C48.6908 21.6266 48.6199 21.4494 48.4781 21.3549C48.3363 21.2604 48.2655 21.0832 48.2655 20.8233C48.2655 20.5633 48.5254 20.4098 49.0452 20.3625C49.565 20.2916 50.1321 20.3271 50.7464 20.4688C51.3843 20.587 51.9632 20.8114 52.483 21.1422C53.0028 21.473 53.2628 21.8983 53.2628 22.4181C53.2628 23.4578 53.1919 24.5683 53.0501 25.7497C52.932 26.9311 52.8729 28.1597 52.8729 29.4356C52.8729 29.6955 52.8729 29.9436 52.8729 30.1799C52.8729 30.4162 52.8847 30.6288 52.9083 30.8179C53.0265 30.0854 53.1801 29.1875 53.3691 28.1243C53.5817 27.061 53.818 25.9505 54.0779 24.7927C54.3615 23.6113 54.6686 22.4418 54.9994 21.284C55.3538 20.1262 55.7319 19.0866 56.1335 18.1651C56.5352 17.2436 56.9605 16.4993 57.4095 15.9323C57.882 15.3652 58.3782 15.0817 58.898 15.0817C59.914 15.0817 60.6937 15.4361 61.2372 16.1449C61.7806 16.8538 62.1587 17.7398 62.3713 18.8031C62.584 19.8663 62.6785 21.0123 62.6548 22.2409C62.6548 23.4696 62.6076 24.6155 62.5131 25.6788C62.4186 26.742 62.3241 27.6281 62.2295 28.3369C62.135 29.0458 62.1232 29.4002 62.1941 29.4002C62.265 29.4002 62.3831 29.1875 62.5485 28.7622C62.7139 28.3369 62.9148 27.8053 63.151 27.1673C63.3873 26.5294 63.659 25.8324 63.9662 25.0763C64.2734 24.3202 64.5805 23.6232 64.8877 22.9852C65.2185 22.3473 65.5375 21.8156 65.8446 21.3903C66.1754 20.965 66.4944 20.7524 66.8015 20.7524C67.2505 20.7524 67.6994 20.7878 68.1483 20.8587C68.6209 20.9296 69.0344 21.0595 69.3888 21.2486C69.7668 21.414 70.074 21.6502 70.3103 21.9574C70.5466 22.2646 70.6647 22.6544 70.6647 23.127C70.6647 23.7177 70.582 24.4501 70.4166 25.3244C70.2748 26.1986 70.204 27.2264 70.204 28.4078ZM80.9977 16.1804C81.5175 16.1804 82.0019 16.3103 82.4508 16.5702C82.8997 16.8301 83.2896 17.2554 83.6204 17.8461C83.9512 18.4368 84.2111 19.2047 84.4001 20.1499C84.6127 21.0713 84.7191 22.2055 84.7191 23.5523C84.7191 24.8991 84.6009 26.2695 84.3647 27.6635C84.1284 29.034 83.7503 30.2744 83.2305 31.3849C82.7107 32.4954 82.0373 33.4051 81.2103 34.114C80.407 34.7992 79.4264 35.1418 78.2686 35.1418C77.229 35.1418 76.3666 34.8819 75.6814 34.362C75.0198 33.8186 74.4882 33.1452 74.0865 32.3419C73.7085 31.5149 73.4486 30.617 73.3068 29.6483C73.165 28.6559 73.0941 27.7108 73.0941 26.8129C73.0941 25.986 73.1414 25.1353 73.2359 24.2611C73.3304 23.3633 73.4958 22.5363 73.7321 21.7802C73.9684 21.0241 74.2992 20.3743 74.7245 19.8309C75.1498 19.2874 75.6814 18.9448 76.3193 18.8031C76.532 18.2124 76.8155 17.7398 77.17 17.3854C77.5244 17.031 77.9142 16.7711 78.3395 16.6057C78.7648 16.4167 79.202 16.2985 79.6509 16.2513C80.1234 16.204 80.5724 16.1804 80.9977 16.1804ZM80.0407 33.2633C80.4188 33.2633 80.785 32.8971 81.1394 32.1647C81.4939 31.4322 81.801 30.5107 82.0609 29.4002C82.3208 28.2897 82.5099 27.0965 82.628 25.8206C82.7698 24.521 82.8052 23.316 82.7343 22.2055C82.6634 21.095 82.4744 20.1735 82.1673 19.441C81.8601 18.7086 81.3875 18.3423 80.7496 18.3423C80.466 18.3423 80.2652 18.5432 80.1471 18.9448C80.0289 19.3465 79.9226 19.8191 79.8281 20.3625C79.7336 20.8823 79.6154 21.414 79.4737 21.9574C79.3319 22.5008 79.1074 22.9143 78.8003 23.1979C78.8003 24.2611 78.7648 25.3834 78.694 26.5648C78.6231 27.7462 78.5876 28.8331 78.5876 29.8255C78.6113 30.8179 78.7176 31.6448 78.9066 32.3064C79.1193 32.9444 79.4973 33.2633 80.0407 33.2633ZM96.7577 14.8336C97.2539 14.8336 97.75 14.8454 98.2462 14.869C98.7424 14.8927 99.1913 14.9872 99.593 15.1526C100.018 15.318 100.361 15.6015 100.621 16.0032C100.881 16.3812 101.011 16.9365 101.011 17.6689C101.011 18.4014 100.963 19.122 100.869 19.8309C100.774 20.5161 100.621 21.1304 100.408 21.6739C100.219 22.1937 99.9593 22.619 99.6285 22.9498C99.3213 23.2806 98.9433 23.446 98.4943 23.446C97.5965 23.446 96.8522 23.3042 96.2615 23.0207C95.6708 22.7135 95.3754 22.3591 95.3754 21.9574C95.3754 21.7684 95.3991 21.4612 95.4463 21.0359C95.5172 20.6106 95.5881 20.1853 95.659 19.76C95.7535 19.2638 95.8598 18.7204 95.9779 18.1297C95.1982 19.7127 94.5012 21.284 93.8869 22.8434C93.627 23.5287 93.3671 24.2375 93.1072 24.97C92.8473 25.7024 92.611 26.4349 92.3983 27.1673C92.1857 27.8998 91.9966 28.6205 91.8313 29.3293C91.6895 30.0381 91.6068 30.7115 91.5832 31.3495C91.6777 31.9874 91.7722 32.5309 91.8667 32.9798C91.9848 33.4051 92.0912 33.7595 92.1857 34.0431C92.2802 34.3266 92.3511 34.5629 92.3983 34.7519C92.4692 34.9173 92.5046 35.0709 92.5046 35.2127C92.5046 35.378 92.3629 35.5316 92.0793 35.6734C91.7958 35.8388 91.4296 35.886 90.9806 35.8152C90.5553 35.7679 90.0946 35.5671 89.5984 35.2127C89.1022 34.8582 88.6297 34.2557 88.1807 33.4051C87.7554 32.5309 87.401 31.3613 87.1175 29.8964C86.8339 28.4314 86.6922 26.553 86.6922 24.2611C86.6922 23.3633 86.7276 22.3945 86.7985 21.3549C86.8458 20.3153 86.9285 19.3583 87.0466 18.4841C87.1884 17.5862 87.3656 16.842 87.5782 16.2513C87.7909 15.6606 88.0508 15.3652 88.3579 15.3652C89.563 15.3652 90.4372 15.6369 90.9806 16.1804C91.5477 16.7002 91.8313 17.3381 91.8313 18.0942C91.8313 18.4487 91.7958 18.8385 91.7249 19.2638C91.654 19.6655 91.5713 20.1144 91.4768 20.6106C91.3823 21.0832 91.2996 21.603 91.2287 22.17C91.1579 22.7371 91.1224 23.3514 91.1224 24.013C91.1224 25.3126 91.1579 26.4585 91.2287 27.4509C91.3705 26.6712 91.5713 25.8206 91.8313 24.8991C92.0912 23.9776 92.3747 23.0561 92.6819 22.1346C93.0126 21.1895 93.3553 20.2798 93.7097 19.4056C94.0877 18.5313 94.4539 17.7634 94.8084 17.1019C95.1628 16.4167 95.5054 15.8732 95.8362 15.4715C96.167 15.0462 96.4741 14.8336 96.7577 14.8336ZM108.232 13.5222C108.232 14.0657 108.055 14.4437 107.701 14.6564C107.37 14.8454 106.945 14.9281 106.425 14.9045C105.929 14.8572 105.373 14.7273 104.759 14.5146C104.168 14.302 103.613 14.042 103.093 13.7349C102.597 13.4277 102.184 13.1087 101.853 12.778C101.498 12.4235 101.321 12.0927 101.321 11.7856C101.321 11.3367 101.416 10.994 101.605 10.7578C101.77 10.5215 101.994 10.3561 102.278 10.2616C102.585 10.1434 102.94 10.0844 103.341 10.0844C103.743 10.0607 104.168 10.0489 104.617 10.0489C105.042 10.0489 105.468 10.1671 105.893 10.4033C106.342 10.6396 106.732 10.935 107.063 11.2894C107.417 11.6438 107.701 12.0219 107.913 12.4235C108.126 12.8252 108.232 13.1914 108.232 13.5222ZM112.237 24.5801C112.308 24.3674 112.391 24.2257 112.485 24.1548C112.58 24.0603 112.674 24.0367 112.769 24.0839C112.863 24.1075 112.934 24.1784 112.981 24.2966C113.029 24.3911 113.041 24.5092 113.017 24.651C112.946 24.9345 112.804 25.3834 112.592 25.9978C112.403 26.5885 112.154 27.2619 111.847 28.018C111.564 28.7504 111.233 29.5183 110.855 30.3217C110.501 31.1014 110.122 31.822 109.721 32.4836C109.319 33.1216 108.906 33.6532 108.48 34.0785C108.055 34.4802 107.642 34.681 107.24 34.681H107.169C106.011 34.681 105.09 34.3266 104.405 33.6178C103.719 32.8853 103.2 31.9993 102.845 30.9596C102.491 29.92 102.254 28.8449 102.136 27.7344C102.042 26.6003 101.994 25.6197 101.994 24.7927C101.994 23.7767 102.006 22.9025 102.03 22.17C102.077 21.4376 102.124 20.8233 102.172 20.3271C102.243 19.8309 102.29 19.4292 102.313 19.122C102.361 18.7913 102.384 18.5195 102.384 18.3069C102.384 17.9288 102.609 17.7162 103.058 17.6689C103.53 17.598 104.05 17.6571 104.617 17.8461C105.184 18.0352 105.692 18.3187 106.141 18.6967C106.614 19.0512 106.85 19.4528 106.85 19.9018C106.85 20.2326 106.838 20.5988 106.815 21.0005C106.791 21.4021 106.767 21.8274 106.744 22.2764C106.72 22.7253 106.696 23.1742 106.673 23.6232C106.649 24.0485 106.637 24.4501 106.637 24.8282C106.637 26.742 106.779 28.3015 107.063 29.5065C107.37 30.7115 107.677 31.6567 107.984 32.3419C108.22 32.2237 108.48 31.9638 108.764 31.5621C109.071 31.1605 109.378 30.6997 109.685 30.1799C109.993 29.6601 110.288 29.1048 110.571 28.5141C110.855 27.9234 111.115 27.3682 111.351 26.8484C111.587 26.3049 111.776 25.8324 111.918 25.4307C112.084 25.029 112.19 24.7455 112.237 24.5801ZM125.707 24.2611C125.778 24.0957 125.86 23.9894 125.955 23.9421C126.049 23.8713 126.144 23.8594 126.238 23.9067C126.333 23.9303 126.404 24.0012 126.451 24.1193C126.498 24.2375 126.486 24.3911 126.416 24.5801C126.368 24.6982 126.274 25.0172 126.132 25.537C125.99 26.0332 125.778 26.6357 125.494 27.3446C125.234 28.0298 124.892 28.7622 124.466 29.542C124.065 30.3217 123.58 31.0423 123.013 31.7039C122.446 32.3655 121.785 32.9089 121.028 33.3342C120.296 33.7595 119.469 33.9722 118.547 33.9722C117.319 33.9722 116.208 33.7241 115.216 33.2279C114.247 32.7317 113.42 32.0938 112.735 31.314C112.073 30.5343 111.565 29.6837 111.211 28.7622C110.857 27.8171 110.679 26.8956 110.679 25.9978C110.679 24.84 110.809 23.7295 111.069 22.6662C111.329 21.5793 111.648 20.587 112.026 19.6891C112.404 18.7913 112.806 18.0115 113.231 17.35C113.68 16.6884 114.082 16.1922 114.436 15.8614C114.791 15.5542 115.251 15.3298 115.818 15.188C116.386 15.0226 116.953 14.9399 117.52 14.9399C118.11 14.9163 118.666 14.9399 119.185 15.0108C119.705 15.0817 120.107 15.188 120.39 15.3298C120.934 15.5897 121.371 16.0977 121.702 16.8538C122.056 17.5862 122.233 18.4487 122.233 19.441C122.233 21.3076 121.844 22.7253 121.064 23.694C120.284 24.6392 119.315 25.1117 118.158 25.1117C117.732 25.1117 117.283 25.0645 116.811 24.97C116.362 24.8754 115.948 24.7691 115.57 24.651C115.499 25.5252 115.57 26.3876 115.783 27.2382C115.996 28.0888 116.279 28.8449 116.634 29.5065C117.012 30.1681 117.437 30.7115 117.91 31.1368C118.406 31.5385 118.902 31.7393 119.398 31.7393C120.154 31.7393 120.828 31.574 121.418 31.2432C122.009 30.8887 122.529 30.4516 122.978 29.9318C123.45 29.412 123.84 28.8449 124.147 28.2306C124.478 27.6163 124.75 27.0374 124.962 26.494C125.199 25.9269 125.364 25.4425 125.459 25.0408C125.577 24.6155 125.659 24.3556 125.707 24.2611ZM119.044 17.9879C118.571 17.9879 118.146 18.1533 117.768 18.4841C117.39 18.8149 117.059 19.252 116.775 19.7954C116.492 20.3389 116.256 20.965 116.067 21.6739C115.878 22.3827 115.736 23.127 115.641 23.9067C116.397 24.2375 117.047 24.3202 117.591 24.1548C118.134 23.9658 118.583 23.6586 118.937 23.2333C119.292 22.7844 119.552 22.2646 119.717 21.6739C119.882 21.0595 119.965 20.4807 119.965 19.9372C119.965 19.3938 119.882 18.933 119.717 18.555C119.575 18.1769 119.351 17.9879 119.044 17.9879ZM124.179 23.9776C124.179 23.1979 124.357 22.3118 124.711 21.3194C125.065 20.3271 125.514 19.3938 126.058 18.5195C126.601 17.6217 127.204 16.8656 127.865 16.2513C128.551 15.6369 129.212 15.3298 129.85 15.3298C130.488 15.3298 131.173 15.3298 131.906 15.3298C132.638 15.3298 133.3 15.3888 133.89 15.507C134.505 15.6251 135.013 15.8614 135.414 16.2158C135.816 16.5466 136.017 17.0428 136.017 17.7044C136.017 18.366 135.828 19.0512 135.45 19.76C135.096 20.4688 134.682 21.1186 134.209 21.7093C133.761 22.3 133.312 22.7844 132.863 23.1624C132.437 23.5405 132.154 23.7295 132.012 23.7295C131.847 23.7295 131.799 23.4696 131.87 22.9498C131.941 22.43 132.024 21.8629 132.118 21.2486C132.237 20.6106 132.331 20.0317 132.402 19.5119C132.473 18.9921 132.437 18.7322 132.296 18.7322C131.847 18.7322 131.41 18.9094 130.984 19.2638C130.559 19.5946 130.169 20.0199 129.815 20.5397C129.46 21.0359 129.165 21.5912 128.929 22.2055C128.692 22.7962 128.527 23.3514 128.432 23.8713C128.362 24.3674 128.373 24.7927 128.468 25.1472C128.586 25.478 128.822 25.6433 129.177 25.6433C129.318 25.6433 129.578 25.6552 129.956 25.6788C130.334 25.6788 130.76 25.7024 131.232 25.7497C131.705 25.7969 132.189 25.8796 132.685 25.9978C133.205 26.1159 133.666 26.2931 134.068 26.5294C134.493 26.742 134.836 27.0256 135.096 27.38C135.379 27.7344 135.521 28.1715 135.521 28.6913C135.521 29.2112 135.379 29.7782 135.096 30.3926C134.812 31.0069 134.434 31.6212 133.961 32.2355C133.512 32.8262 132.993 33.4051 132.402 33.9722C131.835 34.5393 131.256 35.0354 130.665 35.4607C130.098 35.9097 129.555 36.2641 129.035 36.524C128.515 36.7839 128.078 36.9139 127.724 36.9139C127.204 36.9139 126.731 36.8193 126.306 36.6303C125.904 36.4413 125.573 36.2287 125.314 35.9924C125.077 35.7561 124.936 35.5434 124.888 35.3544C124.865 35.1654 124.971 35.0709 125.207 35.0709C125.491 35.0709 125.845 34.9409 126.27 34.681C126.719 34.4211 127.18 34.0903 127.653 33.6887C128.149 33.2633 128.645 32.8026 129.141 32.3064C129.637 31.7866 130.075 31.2904 130.453 30.8179C130.854 30.3217 131.173 29.8727 131.41 29.4711C131.669 29.0694 131.799 28.7622 131.799 28.5496C130.382 28.715 129.106 28.6677 127.972 28.4078C127.499 28.3133 127.027 28.1597 126.554 27.9471C126.105 27.7344 125.703 27.4627 125.349 27.1319C124.995 26.7775 124.711 26.3404 124.498 25.8206C124.286 25.3007 124.179 24.6864 124.179 23.9776Z" fill="black"/>
</svg>
